<?xml version="1.0" encoding="utf-8"?>
<!-- Generator: Adobe Illustrator 26.4.1, SVG Export Plug-In . SVG Version: 6.00 Build 0)  -->
<svg version="1.1" id="_图层_2" xmlns="http://www.w3.org/2000/svg" xmlns:xlink="http://www.w3.org/1999/xlink" x="0px" y="0px"
	 viewBox="0 0 109.6 140.3" style="enable-background:new 0 0 109.6 140.3;" xml:space="preserve">
<style type="text/css">
	.st0{fill:#97ABC4;}
	.st1{fill:#1A1B1B;}
	.st2{fill:#FFFFFF;}
	.st3{fill:none;stroke:#191A1A;stroke-width:4;stroke-miterlimit:10;}
	.st4{fill:none;stroke:#191A1A;stroke-width:5;stroke-miterlimit:10;}
</style>
<circle class="st0" cx="27.1" cy="20.6" r="20.6"/>
<circle class="st0" cx="44.1" cy="53.3" r="20.6"/>
<circle class="st0" cx="89" cy="58.4" r="20.6"/>
<path class="st1" d="M3.1,89.9h99.4c1.7,0,3.1,1.4,3.1,3.1v30.2c0,1.7-1.4,3.1-3.1,3.1H3.1c-1.7,0-3.1-1.4-3.1-3.1V93
	C0,91.3,1.4,89.9,3.1,89.9z"/>
<path class="st2" d="M10.7,96.3h84.1c1.9,0,3.5,1.6,3.5,3.5v16.6c0,1.9-1.6,3.5-3.5,3.5H10.7c-1.9,0-3.5-1.6-3.5-3.5V99.8
	C7.2,97.8,8.8,96.3,10.7,96.3z"/>
<rect x="7.2" y="84.7" class="st1" width="18.6" height="6.2"/>
<rect x="31.4" y="84.7" class="st1" width="18.6" height="6.2"/>
<rect x="55.6" y="84.7" class="st1" width="18.6" height="6.2"/>
<rect x="79.7" y="84.7" class="st1" width="18.6" height="6.2"/>
<rect x="7.2" y="124.8" class="st1" width="18.6" height="6.2"/>
<rect x="31.4" y="124.8" class="st1" width="18.6" height="6.2"/>
<rect x="55.6" y="124.8" class="st1" width="18.6" height="6.2"/>
<rect x="79.7" y="124.8" class="st1" width="18.6" height="6.2"/>
<rect x="15.6" y="75.4" class="st1" width="1.7" height="9.3"/>
<rect x="39.8" y="75.4" class="st1" width="1.7" height="9.3"/>
<rect x="64" y="75.4" class="st1" width="1.7" height="9.3"/>
<rect x="88.2" y="75.4" class="st1" width="1.7" height="9.3"/>
<rect x="15.6" y="131" class="st1" width="1.7" height="9.3"/>
<rect x="39.8" y="131" class="st1" width="1.7" height="9.3"/>
<rect x="64" y="131" class="st1" width="1.7" height="9.3"/>
<rect x="88.2" y="131" class="st1" width="1.7" height="9.3"/>
<path class="st3" d="M42.7,115.6c2.2-2.6,4-5.9,5.1-9.8s1.2-8.4,0-12.2c-1.8-5.8-6.3-8.9-8.2-14.7c-1.4-4.3-1-9.4,0.1-13.8"/>
<path class="st3" d="M75.1,110.6c-0.6-7.9,2.3-15.4,4.6-21.4s7.2-14.4,9.3-19.3"/>
<path class="st3" d="M31.2,100.9C24,95.9,19.7,86.8,20.4,78c0.6-7.7,4.7-14.7,6.9-22.2c2.2-7.4,2.5-15.4,1-23"/>
<circle class="st4" cx="27.1" cy="20.6" r="11.5"/>
<circle class="st4" cx="44.1" cy="53.3" r="11.5"/>
<circle class="st4" cx="89" cy="58.4" r="11.5"/>
</svg>
