<?xml version="1.0" encoding="UTF-8"?>
<svg id="_图层_2" data-name="图层 2" xmlns="http://www.w3.org/2000/svg" viewBox="0 0 83.95 99.55">
  <defs>
    <style>
      .cls-1 {
        fill: #e5f0ce;
      }

      .cls-1, .cls-2 {
        stroke: #191a1a;
        stroke-miterlimit: 10;
        stroke-width: 5px;
      }

      .cls-3 {
        fill: #1a1b1b;
      }

      .cls-2 {
        fill: none;
      }
    </style>
  </defs>
  <g>
    <line class="cls-2" x1="2.93" y1="27.04" x2="2.93" y2="19.04"/>
    <polyline class="cls-2" points="2.93 10.81 2.93 2.81 10.93 2.81"/>
    <line class="cls-2" x1="19.1" y1="2.81" x2="27.1" y2="2.81"/>
  </g>
  <g>
    <line class="cls-2" x1="27.1" y1="61.5" x2="19.1" y2="61.5"/>
    <polyline class="cls-2" points="10.93 61.5 2.93 61.5 2.93 53.5"/>
    <line class="cls-2" x1="2.93" y1="45.52" x2="2.93" y2="37.52"/>
  </g>
  <g>
    <line class="cls-2" x1="81.13" y1="37.35" x2="81.13" y2="45.35"/>
    <polyline class="cls-2" points="81.13 53.5 81.13 61.5 73.13 61.5"/>
    <line class="cls-2" x1="65.95" y1="61.5" x2="57.95" y2="61.5"/>
  </g>
  <g>
    <line class="cls-2" x1="57.95" y1="2.81" x2="65.95" y2="2.81"/>
    <polyline class="cls-2" points="73.13 2.81 81.13 2.81 81.13 10.81"/>
    <line class="cls-2" x1="81.13" y1="18.27" x2="81.13" y2="26.27"/>
  </g>
  <circle class="cls-1" cx="41.34" cy="34.3" r="21.03"/>
  <g>
    <path class="cls-3" d="M48.19,77.22c3.74,.78,7.48,1.76,10.87,3.52,3.39,1.76,6.43,4.38,8.13,7.81,1.66,3.35,2.02,7.73,.22,11h8.96c-2.14-17.16-16.77-30.43-34.5-30.43-6.92,0-13.37,2.03-18.79,5.52,8.43,0,16.86,.86,25.11,2.59Z"/>
    <path class="cls-3" d="M62.25,99.55c-.23-.01-.46-.02-.7-.04,2.05-2.11,2.51-5.46,1.55-8.24-.96-2.78-3.15-5.01-5.69-6.51-2.53-1.5-5.4-2.34-8.26-3.01-10.84-2.54-22.19-2.91-33.17-1.07-4.62,5.14-7.73,11.66-8.63,18.88H28.24c-1.05-1.66-1.67-3.62-1.67-5.73,0-5.92,4.8-10.71,10.71-10.71s10.71,4.8,10.71,10.71c0,2.11-.62,4.07-1.67,5.73h15.93Z"/>
  </g>
</svg>