<?xml version="1.0" encoding="UTF-8"?>
<svg id="_图层_5" data-name="图层 5" xmlns="http://www.w3.org/2000/svg" viewBox="0 0 802 768">
  <defs>
    <style>
      .cls-1 {
        fill: #e8f4d0;
      }

      .cls-2 {
        fill: #1f9abf;
      }
    </style>
  </defs>
  <rect class="cls-2" width="802" height="768" rx="71.76" ry="71.76"/>
  <g>
    <path class="cls-1" d="M237.53,589.18v-242.34c0-9.57,7.76-17.32,17.32-17.32h17.7c9.57,0,17.32-7.76,17.32-17.32v-52.6c0-9.57-7.76-17.32-17.32-17.32H97.8c-9.57,0-17.32,7.76-17.32,17.32v52.6c0,9.57,7.76,17.32,17.32,17.32h35.15c9.57,0,17.32,7.76,17.32,17.32v242.34c0,9.57-7.76,17.32-17.32,17.32h-36.68c-9.57,0-17.32,7.76-17.32,17.32v52.6c0,9.57,7.76,17.32,17.32,17.32H397.54c9.57,0,17.32-7.76,17.32-17.32v-52.6c0-9.57-7.76-17.32-17.32-17.32H254.85c-9.57,0-17.32-7.76-17.32-17.32Z"/>
    <rect class="cls-1" x="360.84" y="171.31" width="264.21" height="66.05" rx="28.5" ry="28.5" transform="translate(697.28 -288.61) rotate(90)"/>
    <rect class="cls-1" x="484.69" y="189.48" width="227.88" height="66.05" rx="29.33" ry="29.33" transform="translate(821.13 -376.12) rotate(90)"/>
    <rect class="cls-1" x="590.08" y="189.83" width="227.88" height="66.05" rx="30.09" ry="30.09" transform="translate(926.87 -481.16) rotate(90)"/>
  </g>
</svg>