<?xml version="1.0" encoding="UTF-8"?>
<svg id="_图层_5" data-name="图层 5" xmlns="http://www.w3.org/2000/svg" viewBox="0 0 802 768">
  <defs>
    <style>
      .cls-1 {
        fill: #1b54a8;
      }
    </style>
  </defs>
  <path class="cls-1" d="M230.83,590.43v-242.34c0-9.57,7.76-17.32,17.32-17.32h17.7c9.57,0,17.32-7.76,17.32-17.32v-52.6c0-9.57-7.76-17.32-17.32-17.32H91.11c-9.57,0-17.32,7.76-17.32,17.32v52.6c0,9.57,7.76,17.32,17.32,17.32h35.15c9.57,0,17.32,7.76,17.32,17.32v242.34c0,9.57-7.76,17.32-17.32,17.32h-36.68c-9.57,0-17.32,7.76-17.32,17.32v52.6c0,9.57,7.76,17.32,17.32,17.32H390.85c9.57,0,17.32-7.76,17.32-17.32v-52.6c0-9.57-7.76-17.32-17.32-17.32H248.16c-9.57,0-17.32-7.76-17.32-17.32Z"/>
  <rect class="cls-1" x="354.15" y="172.56" width="264.21" height="66.05" rx="28.5" ry="28.5" transform="translate(691.83 -280.67) rotate(90)"/>
  <rect class="cls-1" x="478" y="190.72" width="227.88" height="66.05" rx="29.33" ry="29.33" transform="translate(815.68 -368.19) rotate(90)"/>
  <rect class="cls-1" x="583.38" y="191.07" width="227.88" height="66.05" rx="30.09" ry="30.09" transform="translate(921.42 -473.22) rotate(90)"/>
</svg>